<svg id="_009-like" data-name="009-like" xmlns="http://www.w3.org/2000/svg" width="33.143" height="31.074" viewBox="0 0 33.143 31.074">
  <path id="Caminho_1647" data-name="Caminho 1647" d="M25.411,12.866H20.232a3.111,3.111,0,0,1-3.107-3.107V5.616A5.186,5.186,0,0,0,11.946.437,3.111,3.111,0,0,0,8.839,3.544V6.428a7.242,7.242,0,0,1-1.034,3.731l-.719,1.2a3.121,3.121,0,0,1-2.664,1.51H3.661A1.036,1.036,0,0,0,2.625,13.9V27.366a1.033,1.033,0,0,0,.5.889l3.948,2.37a6.209,6.209,0,0,0,3.2.887H23.089A4.174,4.174,0,0,0,26.018,30.3l2.322-2.322a4.183,4.183,0,0,0,1.214-2.931V17.009A4.147,4.147,0,0,0,25.411,12.866Z" transform="translate(3.589 -0.437)" fill="#fd9f2b" opacity="0.56"/>
  <path id="Caminho_1648" data-name="Caminho 1648" d="M7.25,5.687H1.036A1.036,1.036,0,0,0,0,6.723V23.294A1.036,1.036,0,0,0,1.036,24.33H7.25a1.036,1.036,0,0,0,1.036-1.036V6.723A1.036,1.036,0,0,0,7.25,5.687Z" transform="translate(0 6.742)" fill="#fd9f2b"/>
</svg>
