<svg xmlns="http://www.w3.org/2000/svg" width="23.205" height="20.525" viewBox="0 0 23.205 20.525"><defs><style>.b{fill:none;stroke-miterlimit:10;}</style></defs><g transform="translate(-0.7 -1.8)"><path class="a" d="M11.8,8.9h-4v1.9a1.389,1.389,0,0,0,.5,1,1.612,1.612,0,0,0,.7.4,4.549,4.549,0,0,1,1.1.3L7.8,15h-2a2.22,2.22,0,0,1-2.2-2.2v-8A.736.736,0,0,1,4.4,4a.789.789,0,0,1,.8.8v3h.6V3.1a.8.8,0,0,1,1.6,0V7.8H8V2.6a.8.8,0,0,1,1.6,0V7.9h.5V4a.8.8,0,0,1,1.6,0V8.9Z"/><path class="a" d="M12.6,22.1a.91.91,0,0,1,0-1.2l2.2-2.2-.4-.4L11,21.7a.849.849,0,1,1-1.2-1.2l3.3-3.3-.4-.4L9,20.5a.849.849,0,0,1-1.2-1.2l3.7-3.7-.4-.4L8.5,18a.91.91,0,0,1-1.2,0,.91.91,0,0,1,0-1.2L12,12.1l-2.6-.7c-.1,0-.2-.1-.3-.2a.758.758,0,0,1-.2-.4v-1h6.2a2.271,2.271,0,0,1,1.6.6l2.9,2.9a2.116,2.116,0,0,1,0,3.1l-5.7,5.7A1.042,1.042,0,0,1,12.6,22.1Z"/><path class="b" d="M4.9,15.9a2.476,2.476,0,0,1-2.5-2.5"/><path class="b" d="M3.7,17.2a2.476,2.476,0,0,1-2.5-2.5"/><path class="b" d="M20.7,13a2.417,2.417,0,0,1,0,3.5"/><path class="b" d="M22.5,13a2.417,2.417,0,0,1,0,3.5"/></g></svg>
