<svg xmlns="http://www.w3.org/2000/svg" width="22" height="22.5" viewBox="0 0 22 22.5"><defs><style>.a{fill:none;;stroke-linecap:round;stroke-linejoin:round;stroke-miterlimit:10;}</style></defs><g transform="translate(-1 -1)"><path class="a" d="M22.5,2.5v14l-4-4H8.5a1.075,1.075,0,0,1-1-1v-9a1,1,0,0,1,1-1h13A.945.945,0,0,1,22.5,2.5Z"/><path class="a" d="M22.5,2.5v14l-4-4H8.5a1.075,1.075,0,0,1-1-1v-9a1,1,0,0,1,1-1h13A.945.945,0,0,1,22.5,2.5Z"/><path class="b" d="M16.4,8.6h-3l-.6,1.8H11.4l2.9-7.7h1.2l2.9,7.7H17ZM13.8,7.5H16L14.9,4.3Z"/><path class="a" d="M7.5,8h-5a1,1,0,0,0-1,1V23l4-4h10a.945.945,0,0,0,1-1V12.5"/><path class="b" d="M10.7,14.3A8.016,8.016,0,0,0,12,12.4H11a14.629,14.629,0,0,1-.9,1.3,11.319,11.319,0,0,1-1-1.3H8.5a.9.9,0,0,1-.5-.1,8.577,8.577,0,0,0,1.3,2L7,16.7l.7.7L10,15l1.5,1.5.4-1-1.2-1.2Zm-3.2-4H6.2v.9H7.5Z"/></g></svg>
